<svg enable-background="new 0 0 1921 1920" viewBox="0 0 1921 1920" xmlns="http://www.w3.org/2000/svg"><path d="m1920.4 960.2v-.5h-202.9c0-13.9-.4-27.9-1.2-41.8l135.9-135.9 35.3 35.3.4-.4-35.3-35.3 43.5-43.5-.4-.4-43.5 43.5-177.9-177.9h95.5v-.5h-95.3l75.3-75.3-.4-.4-75.6 75.6-168.6-168.6c-3.1-3.2-6.2-6.4-9.3-9.5l143.5-143.5-.4-.4-143.5 143.5c-53.2-53.2-112.9-97.5-178.1-132.3v-178.4h-.5v178.4c-23.2-12.4-47.1-23.6-71.7-33.5-45.1-18.3-92.3-32.3-140.3-41.6-33.5-6.5-67.7-10.7-101.9-12.6l94.4-94.4-.4-.4-94.7 94.7c-13.9-.8-27.9-1.2-41.8-1.2v-202.9h-.5v202.9c-48.4 0-96.9 4.7-144.4 13.9-48 9.3-95.2 23.3-140.3 41.6-24.6 10-48.5 21.2-71.7 33.5v-45.2l69.7-69.7-.4-.4-69.1 69.4v-121.3h-.5v121.7l-170.7 170.7c-2.5 2.4-5 4.9-7.5 7.4l-143.4-143.4-.4.4 143.4 143.4c-2.5 2.5-4.9 4.9-7.3 7.4l-170.6 170.6-117.5-117.5-.4.4 117.2 117.2h-106.2v.5h106.4l-70.4 70.4.4.4 70.5-70.5 30.1 30.1c-6.5 13.6-12.6 27.4-18.2 41.4-18.3 45.1-32.3 92.3-41.6 140.3-6.5 33.6-10.7 67.7-12.6 101.9l-64.4-64.4-.4.4 64.7 64.7c-.8 13.9-1.2 27.9-1.2 41.8h-202.8v.5h202.9c0 13.9.4 27.9 1.2 41.8l-178.5 178.2.4.4 178.2-178.2c1.9 34.2 6.1 68.3 12.6 101.9 9.3 48 23.3 95.2 41.6 140.3 5.7 14 11.8 27.8 18.2 41.4l-30.1 30.1-139.3-139.3-.4.4 139.1 139.1h-128.9v.5h128.7l-150.4 150.4.4.4 150.8-150.8 172 172.1 6 6-47.3 47.3.4.4 47.3-47.3c2 2 4 4 6 5.9l140.4 140.4.4-.4-125.9-125.9c47.8 44.3 100.4 81.8 157.2 112.2v45.6l-98.6 98.6.4.4 98.3-98.3v88.9h.5v-89.4l30.3-30.3c13.6 6.5 27.4 12.6 41.4 18.3 45.1 18.3 92.3 32.3 140.3 41.6 47.4 9.2 96 13.8 144.4 13.9v202.9h.5v-202.9c13.9 0 27.9-.4 41.8-1.2l69.8 69.8.4-.4-69.4-69.4c34.2-1.9 68.4-6.1 101.9-12.6 48-9.3 95.2-23.3 140.3-41.6 24.6-10 48.5-21.2 71.7-33.5v157.4h.5v-157.7c65.2-34.9 124.9-79.2 178.1-132.3l112.2 112.2.4-.4-112.2-112.2c2.8-2.8 5.6-5.7 8.4-8.5l169.6-169.6 133 133 .4-.4-132.7-132.7h111.9v-.5h-112l124-124-.4-.4-124.2 124.2-30.1-30.1c6.5-13.6 12.6-27.4 18.3-41.4 18.3-45.1 32.3-92.3 41.6-140.3 6.5-33.5 10.7-67.6 12.6-101.8l178.4 178.4.4-.4-178.7-178.7c.8-14 1.2-27.9 1.2-41.9h202.3zm-203.4-.4h-42.5l41.4-41.4c.7 13.8 1.1 27.6 1.1 41.4zm-221.6 535-177-177 .7-.7h308.6c-33 61.7-74.4 118.4-123.8 169.3zm-344.8-66.2c-19.2 7.8-38.7 14.3-58.5 19.7l-131.1-131.2h355.5l-26.2 26.2c-41.7 35.9-88.6 64.6-139.7 85.3zm135.2-80.9-147.1 147.1-46.1-46.1c19.7-5.3 39.2-11.9 58.3-19.6 49.1-20 94.4-47.3 134.9-81.4zm-866.6 141.1c-50.4-51.6-92.6-109.1-126.2-171.7h308.6l.6.6-177.1 177.1zm1076.3-1063.5 9.4 9.4c48.9 50.7 90.1 107 122.8 168.3h-308.6l-.6-.6zm147.7 208.3-147.7 147.7-151.2-151.2c-7.9-9.1-16.1-18-24.7-26.6h308.4c5.3 9.9 10.3 19.9 15.2 30.1zm-14.7-30.2h44.8l-29.8 29.8c-4.7-10-9.8-20-15-29.8zm-162 356.4c0-44.8-5.8-88.8-17.3-131.5l46.3-46.3 177.7 177.7h-206.7zm-863.6-356.9h-.5l.3-.3zm826.1 166.8c7.8 19.1 14.3 38.6 19.6 58.4l-131.2 131.2v-355.3l26.4 26.4c36 41.6 64.5 88.4 85.2 139.3zm-80.7-134.9 146.8 146.8-46.1 46.1c-5.3-19.7-11.9-39.1-19.6-58.2-19.9-49.1-47.1-94.2-81.1-134.7zm-217.9 325c-.1-45.2-17.7-87.8-49.6-119.8l58-58 177.8 177.8zm-340.1.4c.1 45.2 17.7 87.8 49.6 119.8l-58 58-177.8-177.8zm170.3-169.7c45.1.1 87.5 17.6 119.5 49.5l-119.5 119.4zm-.5 169-119.5-119.5c31.9-31.9 74.4-49.5 119.5-49.5zm-.4.3h-168.9c.1-45.1 17.6-87.5 49.4-119.4zm.1.4-119.5 119.5c-31.9-31.9-49.4-74.3-49.5-119.5zm.3.4v168.9c-45.1-.1-87.5-17.6-119.5-49.5zm-119.8 119.8c32 31.9 74.6 49.6 119.8 49.6v186.2l-177.8-177.8zm120.3-119.7 119.4 119.4c-31.9 31.8-74.3 49.4-119.4 49.4zm.3-.5h169c-.1 45.1-17.6 87.5-49.5 119.5zm.1-.4 119.4-119.4c31.9 31.9 49.4 74.3 49.5 119.4zm119.4-120.2c-32-31.9-74.6-49.6-119.8-49.6v-186.1l177.8 177.8zm-120.3-49.6c-45.3.1-87.8 17.7-119.8 49.7l-58-58 177.8-177.8zm-120.2 50c-31.9 32-49.5 74.5-49.6 119.8h-186.1l177.7-177.8zm-58.3 298.4-73.5 73.5c-34-34-60.2-73.6-78.2-117.8-17.2-42.5-26-87.5-26.1-133.6zm.4.4 177.8 177.8c-46.1-.1-91-8.9-133.6-26.1-44.2-17.9-83.8-44.2-117.8-78.2zm178.6-8.8c45.2-.1 87.7-17.7 119.8-49.6l58 58-177.7 177.7v-186.1zm120.1-49.9c32-32 49.6-74.6 49.7-119.8h186.1l-177.8 177.8zm210.1-254.3c17.3 42.6 26 87.5 26.1 133.7l-177.8-177.8 73.6-73.6c33.9 33.9 60.2 73.6 78.1 117.7zm-77.8-118.1 104-103.9v337.5c-2-39.8-10.6-78.7-25.7-115.7-17.9-44.2-44.3-83.9-78.3-117.9zm-74.3 73.6-177.8-177.9c46.1.1 91.1 8.8 133.7 26.1 44.2 17.9 83.8 44.2 117.8 78.2zm-356.8 0-73.6-73.6c34-34 73.6-60.3 117.8-78.2 42.5-17.3 87.5-26 133.6-26.1zm-.3.3-177.8 177.8c.1-46.1 8.9-91 26.1-133.6 17.9-44.1 44.2-83.7 78.1-117.7zm-152.2 44c-15 37-23.6 75.7-25.6 115.5v-337.2l103.9 103.9c-34 34-60.3 73.6-78.3 117.8zm0 268.8c17.9 44.2 44.3 83.9 78.3 117.9l-103.9 103.9v-337.3c2.1 39.7 10.7 78.5 25.6 115.5zm78.7 118.3c34 34 73.7 60.3 117.9 78.3 37 15 75.7 23.6 115.5 25.6h-337.3zm430.6-73.9 73.6 73.6c-34 33.9-73.6 60.2-117.7 78.1-42.6 17.3-87.5 26-133.6 26.1zm.4-.4 177.9-177.9c-.1 46.1-8.8 91.1-26.1 133.6-17.9 44.2-44.2 83.8-78.2 117.8zm152.2-44c15-37 23.6-75.9 25.7-115.7v337.6l-104-104c34-34 60.4-73.7 78.3-117.9zm26.3-491h1.3c6.9 6.9 13.5 14 20 21.3zm-104.9 103.9c-34-34-73.7-60.3-117.9-78.3-37-15-75.8-23.6-115.5-25.6h337.4zm-252.1-252.9c44.6 0 88.5 5.8 131 17.2l-131 131zm-.5 148.3-131.1-131.1c42.6-11.4 86.4-17.2 131.1-17.2zm-134.1 26.4c-44.2 17.9-83.9 44.3-118 78.3l-103.9-104h337.5c-39.8 2.1-78.6 10.7-115.6 25.7zm-222.9-25.7-20.6 20.6c6.2-7 12.7-13.9 19.4-20.5h1.2zm.2.5v355.5l-131.2-131.2c5.3-19.8 11.9-39.3 19.7-58.5 20.8-51.2 49.5-98.1 85.6-139.9zm-.4 355.9h-148.2c0-44.6 5.8-88.5 17.2-131zm.1.4-131 131c-11.4-42.5-17.2-86.4-17.2-131zm.3.4v355.5l-25.7-25.7c-36.2-41.8-65.1-88.9-85.9-140.2-7.8-19.2-14.3-38.7-19.7-58.4zm-.3 356h-1.2c-6.5-6.6-12.9-13.3-19-20.2zm356.7.5-131.2 131.2c-19.8-5.3-39.3-11.9-58.4-19.7-51.3-20.8-98.4-49.6-140.2-85.9l-25.7-25.7h355.5zm.4.3v148.3c-44.6 0-88.5-5.8-131-17.2zm134.6-26.5c44.2-17.9 83.9-44.2 117.9-78.2l103.9 103.9h-337.3c39.8-2.1 78.6-10.7 115.5-25.7zm222.8 25.2v-355.4l131.2 131.2c-5.3 19.8-11.9 39.2-19.6 58.4-20.7 51.1-49.4 97.9-85.4 139.6zm21-20.4c-6.3 7.1-12.9 14.1-19.7 20.9h-1.2zm-20.8-335.5h148.3c0 44.6-5.8 88.5-17.2 131.1zm0-.4 131-131c11.4 42.5 17.2 86.4 17.2 131zm178.1-178.1 147.6-147.6c6.4 13.5 12.5 27.3 18.2 41.2 18.3 45.1 32.3 92.3 41.6 140.2 6.5 33.7 10.7 67.9 12.7 102.2l-42 42zm-177.4-178.8h-.6l.3-.3zm-.9-.3v-.6l.3.3zm-.5.2-21.3-21.3c7.2 6.4 14.3 13.1 21.3 20zm-.6.1h-355.4l131.2-131.2c19.8 5.3 39.3 11.9 58.4 19.7 51 20.7 97.7 49.2 139.3 85.1zm-165.6-112c-19.1-7.7-38.5-14.3-58.2-19.6l46.1-46.1 146.8 146.8c-40.4-34-85.6-61.2-134.7-81.1zm-58.7-19.7c-42.7-11.5-86.7-17.3-131.4-17.3v-206.7l177.7 177.7zm-132-17.3c-44.8 0-88.8 5.8-131.5 17.3l-46.3-46.3 177.8-177.8zm-132 17.4c-19.7 5.3-39.1 11.9-58.2 19.6-49.3 20-94.6 47.4-135.2 81.6l147.3-147.3zm-58 20.1c19.1-7.8 38.6-14.3 58.4-19.6l131.2 131.2h-355.4l25.9-25.9c41.8-36.2 88.7-64.9 139.9-85.7zm-166.3 111.3v-1.2c6.7-6.7 13.5-13.1 20.5-19.4zm-.5 0-.3-.3.3-.3zm-.7-.7-177-177.1 7.4-7.4c51.2-49.8 108.2-91.6 170.3-124.8v308.6c-.2.2-.5.4-.7.7zm-177.4-176.7 177.1 177.1-.6.6h-308.6c33.2-62.1 75-119.1 124.8-170.3zm176 178.1c-8.4 8.4-16.4 17.1-24.2 26.1l-151.8 151.8-147.7-147.7c4.9-10.2 10-20.3 15.3-30.2zm-28.3 30.9c-34.2 40.6-61.6 85.9-81.6 135.2-7.7 19.1-14.3 38.5-19.6 58.3l-46.1-46.1zm-101.4 194c-11.5 42.7-17.3 86.6-17.3 131.4h-206.7l177.7-177.7zm-17.3 131.9c0 44.8 5.8 88.8 17.3 131.4l-46.4 46.4-177.7-177.8zm17.5 132c5.3 19.7 11.9 39.1 19.6 58.2 20 49.4 47.5 94.8 81.8 135.5l-147.6-147.6zm105.6 198.6c7.6 8.8 15.6 17.4 23.9 25.7h-308.4c-5.3-9.9-10.4-20-15.3-30.2l147.7-147.7zm25.1 26.3h.6l-.3.3zm.9.3v.6l-.3-.3zm.5 0 20.2 20.2c-6.9-6.1-13.6-12.5-20.2-19zm25.7 25.7 152.1 152.1-147.6 147.6c-10.2-4.9-20.2-9.9-30.2-15.2v-308.4c8.4 8.3 16.9 16.3 25.7 23.9zm4.9 4.2c40.7 34.3 86.1 61.8 135.5 81.8 19.1 7.7 38.5 14.3 58.2 19.6l-46.1 46.1zm194.3 101.5c42.7 11.5 86.7 17.3 131.5 17.3v206.9l-177.8-177.8zm131.9-131.4 131 131c-42.5 11.4-86.4 17.2-131 17.2zm356.4-.1v1.2c-6.8 6.8-13.8 13.3-20.9 19.7zm.5.2.2.2-.2.2zm.2-.4h.7l-.3.3zm1.9-.5c8.5-8.5 16.6-17.3 24.4-26.3l151.5-151.5 147.7 147.7c-4.9 10.2-9.9 20.2-15.2 30.1zm28.5-31.2c34.1-40.5 61.4-85.8 81.4-135 7.7-19.1 14.3-38.5 19.6-58.2l46.1 46.1zm101.1-193.7c11.5-42.7 17.3-86.7 17.3-131.5h206.7l-177.7 177.8zm267.1-174.5c-1.9-34.2-6.2-68.3-12.6-101.8-9.3-48-23.3-95.2-41.6-140.3-5.7-14-11.8-27.8-18.3-41.4l30-30 178 178zm-43.2-314.3h-44.9c-30.1-56.3-67.2-108.4-111-155.9zm-177.9-178.1-177.1 177.1-.6-.6v-308.6c65.1 34.8 124.6 79.1 177.7 132.1zm-178.2 176c-8.6-8.6-17.5-16.8-26.7-24.7l-151.2-151.2 147.7-147.7c10.2 4.9 20.3 10 30.2 15.3zm-212.1-383.6c47.9 9.3 95.1 23.3 140.2 41.6 13.9 5.7 27.7 11.7 41.2 18.2l-147.6 147.6-178-178 41.9-41.9c34.4 1.8 68.6 6 102.3 12.5zm-102.9-12.7-41.3 41.3v-42.5c13.7.1 27.5.5 41.3 1.2zm-326.3 54.3c45.1-18.3 92.3-32.3 140.2-41.6 47.4-9.2 95.9-13.8 144.3-13.8v42.6l-.6-.6-.4.4.8.8-178 178-32.1-32.1-.4.4 32.1 32.1-151.7 151.6c-8.9 7.7-17.6 15.8-26.1 24.2v-308.4c23.3-12.4 47.2-23.6 71.9-33.6zm-72.4-11.6v45c-56.6 30.3-109.1 67.7-156.8 111.8zm-310.8 355.7h-45l156.8-156.8c-44.1 47.7-81.5 100.2-111.8 156.8zm-45.2.5h44.9c-5.2 9.8-10.3 19.8-15.1 29.8zm-29.7 212.1c9.3-47.9 23.3-95.1 41.6-140.2 5.7-13.9 11.7-27.7 18.1-41.2l147.5 147.5-178 178-41.9-41.9c2-34.3 6.2-68.5 12.7-102.2zm-12.7 103 41.3 41.3h-42.4c0-13.8.4-27.6 1.1-41.3zm-1.1 41.7h42.5l-41.3 41.3c-.8-13.7-1.2-27.5-1.2-41.3zm55.4 284.5c-18.3-45.1-32.3-92.3-41.6-140.2-6.5-33.7-10.7-67.9-12.7-102.3l41.9-41.9 178 178-147.5 147.5c-6.4-13.4-12.5-27.1-18.1-41.1zm33 71.9h-44.9l29.8-29.8c4.9 10 9.9 20 15.1 29.8zm-44.7.5h45c30.4 56.8 67.9 109.4 112.2 157.2zm184.1 184-6-6 177.1-177.1.6.6v308.6c-62.7-33.4-120.2-75.6-171.7-126.1zm172.2 171.9v-44.8c9.8 5.2 19.7 10.3 29.8 15.1zm212.1 29.8c-47.9-9.3-95.1-23.3-140.2-41.6-14-5.7-27.7-11.7-41.2-18.2l147.5-147.5 178.2 178.2v43c-48.4-.1-96.9-4.8-144.3-13.9zm144.7 13.8v-42.5l41.3 41.3c-13.7.8-27.5 1.2-41.3 1.2zm284.5-55.4c-45.1 18.3-92.3 32.3-140.2 41.6-33.7 6.5-67.9 10.7-102.3 12.7l-42-42v-207.3c44.8 0 88.7-5.8 131.4-17.3l46.3 46.3-112.2 112.2.4.4 112.2-112.2 112.2 112.2.4-.4-112.3-112.2 151.5-151.5c9-7.8 17.8-15.9 26.4-24.4v308.4c-23.2 12.3-47.2 23.5-71.8 33.5zm72.4-33.9v-308.6l.6-.6 177.1 177.1c-53.1 53.1-112.7 97.3-177.7 132.1zm310.8-310.2h44.9l-156.3 156.3c43.9-47.5 81.2-99.9 111.4-156.3zm45-.5h-44.8c5.2-9.8 10.2-19.7 15-29.7zm29.8-212.1c-9.3 47.9-23.3 95.1-41.6 140.2-5.7 14-11.7 27.7-18.2 41.2l-147.6-147.6 178-178 42 42c-1.8 34.3-6 68.6-12.6 102.2zm12.7-102.8-41.4-41.4h42.6c0 13.7-.4 27.6-1.2 41.4z" fill="#fff" opacity=".1"/></svg>